<?xml version="1.0" encoding="utf-8"?>
<!-- Generator: Adobe Adobe Illustrator 29.1.0, SVG Export Plug-In . SVG Version: 6.00 Build 0)  -->
<svg version="1.1" id="Layer_1" xmlns="http://www.w3.org/2000/svg" xmlns:xlink="http://www.w3.org/1999/xlink" x="0px" y="0px"
	 width="612px" height="792px" viewBox="0 0 612 792" style="enable-background:new 0 0 612 792;" xml:space="preserve">
<style type="text/css">
	.st0{fill:#50832B;}
	.st1{fill:#FEFFFE;}
	.st2{fill:#030302;}
	.st3{fill:#030301;}
	.st4{fill:#FDFDFD;}
	.st5{fill:#FCFCFC;}
	.st6{fill:#4F812A;}
	.st7{fill:#F6F6F6;}
	.st8{fill:#F4F4F4;}
	.st9{fill:#F1F1F1;}
	.st10{fill:#F3F3F3;}
	.st11{fill:#83482C;}
	.st12{fill:#050202;}
</style>
<g>
	<g>
		<path class="st0" d="M52.9,96.96C50.28,97,47.71,97,45.06,97c-1.43-0.3-2.81-0.19-4.16-0.43c-3.57-0.65-7.01-1.74-10.39-3.04
			c-2.91-1.12-5.63-2.59-8.22-4.3c-1.47-0.97-2.79-2.14-4.15-3.26c-0.74-0.61-1.55-1.12-2.24-1.8c-4.46-4.43-8.33-9.32-10.81-15.12
			c-1.98-4.61-3.63-9.36-3.91-14.46c-0.03-0.48-0.1-0.95-0.14-1.49C1,50.4,1,47.78,1,45.06c0.22-2.34,0.42-4.59,0.97-6.8
			c0.59-2.4,1.37-4.73,2.21-7.04c0.98-2.68,2.29-5.2,3.76-7.64c1.16-1.93,2.66-3.6,4.01-5.38c0.93-1.22,1.93-2.38,3.04-3.44
			c2.82-2.66,5.81-5.1,9.12-7.13c3.59-2.21,7.49-3.72,11.51-4.95c3.07-0.94,6.2-1.55,9.48-1.64C47.66,1,50.16,1,52.75,1
			c1.53,0.25,3,0.21,4.45,0.45c3.3,0.56,6.45,1.59,9.58,2.72c3.09,1.11,6,2.58,8.68,4.45c3.27,2.29,6.52,4.67,9.11,7.75
			c2.9,3.45,5.75,6.94,7.64,11.1c2.15,4.71,3.83,9.55,4.53,14.69c0.13,0.95,0.12,1.91,0.22,2.92C97,47.72,97,50.29,97,52.94
			c-0.28,2.36-0.41,4.66-0.99,6.89c-0.66,2.54-1.49,5.02-2.41,7.48c-1.05,2.83-2.54,5.44-4.12,8c-1,1.61-2.29,3-3.45,4.48
			c-0.79,1-1.55,2.02-2.48,2.92c-3.82,3.68-7.94,6.95-12.67,9.37c-2.54,1.3-5.23,2.23-7.95,3.08C59.68,96.17,56.38,96.89,52.9,96.96
			z"/>
		<path class="st1" d="M52.93,97c0.88-0.44,1.94-0.37,2.95-0.51c3.95-0.54,7.69-1.77,11.41-3.14c2.8-1.03,5.34-2.52,7.86-4.07
			c1.45-0.89,2.69-2.04,4.02-3.08c1.53-1.19,3.11-2.34,4.38-3.82c3.36-3.92,6.66-7.9,8.79-12.68c2.36-5.3,3.97-10.81,4.58-16.64
			C97,67.67,97,82.32,97,97C82.34,97,67.68,97,52.93,97z"/>
		<path class="st1" d="M1,53.12c0.47,0.81,0.37,1.81,0.5,2.76c0.57,4.04,1.82,7.87,3.26,11.68c1.04,2.76,2.52,5.27,4.06,7.75
			c0.93,1.5,2.18,2.74,3.2,4.17c1.21,1.69,2.57,3.27,4.16,4.59c3.78,3.12,7.55,6.29,12.11,8.28c5.31,2.33,10.81,3.96,16.64,4.58
			C30.33,97,15.68,97,1,97C1,82.4,1,67.81,1,53.12z"/>
		<path class="st1" d="M97,45.07c-0.44-0.88-0.36-1.94-0.51-2.95c-0.57-4.04-1.81-7.88-3.26-11.67c-1.19-3.12-2.83-5.98-4.71-8.71
			c-0.77-1.13-1.72-2.13-2.54-3.23c-1.21-1.61-2.49-3.16-4.02-4.46c-3.61-3.04-7.24-6.06-11.56-8.07
			C64.84,3.4,59.04,1.66,52.87,1.07C67.55,1,82.25,1,97,1C97,15.66,97,30.32,97,45.07z"/>
		<path class="st1" d="M45.07,1c-0.91,0.44-2,0.37-3.05,0.52c-3.62,0.51-7.08,1.59-10.51,2.82c-3.26,1.17-6.29,2.77-9.13,4.71
			c-1.26,0.86-2.41,1.88-3.64,2.79c-1.7,1.25-3.34,2.58-4.69,4.2c-3.1,3.72-6.21,7.44-8.23,11.91C3.37,33.35,1.7,38.98,1.07,44.94
			C1,30.33,1,15.68,1,1C15.66,1,30.32,1,45.07,1z"/>
		<path class="st2" d="M23.61,50.78c-2.49-1.39-4.44-3.32-6.36-5.29c-0.18-0.18-0.35-0.37-0.55-0.53c-0.66-0.51-0.83-1.16-0.61-1.95
			c0.26-0.92,0.78-1.68,1.38-2.39c2.82-3.35,6.12-5.95,10.53-6.86c2.4-0.49,4.76-0.34,7.12,0.22c3.32,0.78,6.41,2.15,9.33,3.85
			c1.59,0.93,3.06,2.08,4.51,3.23c0.75,0.6,1.14,0.4,1.73-0.2c1.29-1.32,2.31-2.87,3.66-4.15c1.86-1.77,3.86-3.34,5.87-4.92
			c3.59-2.82,7.69-4.39,12.16-4.94c2.93-0.36,5.8,0.13,8.3,1.93c0.53,0.38,0.83,0.88,0.94,1.5c0.21,1.19,0.28,2.41,0.45,3.6
			c0.43,3.08-1.04,5.61-2.62,7.85c-1.06,1.51-2.68,3.01-4.87,3.26c-0.31,0.03-0.62,0.16-0.91,0.29c-3.47,1.59-7.19,1.24-10.76,0.92
			c-4.04-0.36-8.05-1.21-11.94-2.47c-0.76-0.24-1.2,0-1.77,0.47c-3.68,3.06-7.27,6.21-11.99,7.7C32.5,53.41,28.02,53.12,23.61,50.78
			z"/>
		<path class="st3" d="M17.95,59.24c2.12-3.09,5.64-3.94,8.78-2.1c1.23,0.72,2.53,1.02,3.92,1.07c2.86,0.11,5.7,0.16,8.35-1.17
			c1.81-0.91,3.44-2.09,5.15-3.15c2.31-1.42,4.82-2.18,7.52-2.18c4.41,0,8.83,0.1,13.24,0.16c1.74,0.03,3.07-0.66,4.25-1.97
			c1.55-1.73,3.4-3.07,5.82-3.46c3.72-0.59,6.7,2.95,5.46,6.51c-0.69,1.99-2.08,3.45-3.67,4.69c-1.99,1.54-4.11,2.91-6.68,3.38
			c-0.86,0.16-1.67-0.02-2.44-0.26c-1.36-0.43-2.71-0.6-4.14-0.51c-1.82,0.12-3.65,0.07-5.47,0.07c-2.87,0-5.52,0.7-7.97,2.26
			c-3.34,2.13-6.68,4.3-10.28,5.94c-1.7,0.78-3.14,2.18-5.07,2.39c-4.11,0.44-8.23,0.76-12.2-0.84c-3.58-1.44-5.77-4.72-5.6-7.91
			C16.98,61.11,17.39,60.19,17.95,59.24z"/>
		<path class="st4" d="M77.39,41.09c-1.2,1.13-2.47,1.96-4.01,2.45c-3.36,1.06-4.62,1.27-7.69,0.99c1.84-1.2,3.57-2.47,3.18-4.9
			c-0.28-1.71-1.49-2.67-3.25-2.94c-0.07,0.12-0.19,0.25-0.22,0.39c-0.1,0.43-0.3,0.73-0.78,0.62c-0.5-0.12-0.46-0.48-0.42-0.9
			c0.1-0.92,0.29-1.37,1.48-1.32c1.08,0.04,2.18-0.62,3.3-0.89c2.98-0.72,5.98-1,8.97,0c0.76,0.25,1.48,0.57,2.18,1.09
			c-0.71,1.63-1.4,3.26-2.13,4.87C77.9,40.75,77.63,40.88,77.39,41.09z"/>
		<path class="st5" d="M34.65,50.79c-5.08,0.93-9.42-0.44-13.2-3.74c-0.8-0.7-0.83-1.22-0.04-1.84c1.84-1.46,3.63-3.01,5.8-4
			c2.25-1.03,4.55-1.84,7.12-1.8c-0.15,0.32-0.46,0.35-0.68,0.48c-0.19,0.12-0.4,0.2-0.59,0.32c-3.55,2.15-3.56,5.72-0.02,7.88
			c0.8,0.49,1.65,0.85,2.55,1.06c0.86,0.21,1.75,0.32,2.73,0.49C37.11,50.18,35.96,50.58,34.65,50.79z"/>
		<path class="st6" d="M43.59,39.15c-2.16-0.31-4.29-0.84-6.51-0.96c-4.28-0.25-8.22,0.74-11.91,2.89
			c-2.09,1.21-3.79,2.88-5.53,4.57c-0.8-0.46-1.39-1.06-1.94-1.71c-0.27-0.32-0.23-0.65-0.03-0.97c0.29-0.46,0.55-0.94,0.91-1.34
			c1.32-1.46,2.5-3.11,4.21-4.15c3.04-1.86,6.31-2.91,9.93-2.38C36.61,35.66,40.27,36.9,43.59,39.15z"/>
		<path class="st6" d="M54.91,38.25c0.57-1.16,1.7-1.67,2.58-2.43c3.07-2.67,6.23-5.23,10.17-6.52c3.28-1.07,6.6-1.4,10.06-0.48
			c2.33,0.62,2.71,1.61,2.68,4.57c-0.38,0.05-0.66-0.21-0.98-0.33c-3.39-1.37-6.87-1.27-10.35-0.49c-3.41,0.76-6.66,1.99-9.73,3.68
			c-1.36,0.75-2.96,1.02-4.26,2.05C54.98,38.32,54.94,38.31,54.91,38.25z"/>
		<path class="st7" d="M61.78,39.97c0.47-0.84,1.13-0.97,1.92-0.75c0.12,0.03,0.32,0.09,0.33,0.16c0.14,1.14,1.42,1.95,0.92,3.26
			c-0.19,0.51-0.32,1.07-1.05,1.03c-0.68-0.04-0.92-0.51-1.03-1.07c-0.05-0.28-0.03-0.52-0.37-0.69
			C61.76,41.5,61.52,40.85,61.78,39.97z"/>
		<path class="st8" d="M43.57,42.27c-0.07,0.56-0.38,0.67-0.82,0.64c-0.44-0.02-0.88-0.01-1.38-0.01c-0.03,0.54-0.06,1.07-0.1,1.61
			c-0.03,0.51-0.23,0.89-0.81,0.84c-0.54-0.05-0.51-0.47-0.48-0.87c0.05-0.6,0.15-1.21,0.13-1.81c-0.02-0.97,0.47-1.29,1.31-1.08
			C42.15,41.78,43.08,41.23,43.57,42.27z"/>
		<path class="st9" d="M46.56,41.66c0.72,0.34,1.37,0.65,2.14,1.02c-0.76,0.7-1.43,1.31-2.19,2.01c-0.1-1.4-0.43-2.6-1.55-3.53
			C45.59,41.14,46.02,41.46,46.56,41.66z"/>
		<path class="st10" d="M42.65,44.98c-0.33-0.7,0.01-1.1,0.56-1.32c0.39-0.15,0.83-0.13,1.13,0.25c0.23,0.28,0.37,0.64,0.18,0.97
			c-0.24,0.41-0.66,0.56-1.15,0.49C43.1,45.34,42.9,45.2,42.65,44.98z"/>
		<path class="st6" d="M54.99,38.29c-0.08,0.05-0.23,0.13-0.28,0.09c-0.1-0.09,0.05-0.11,0.15-0.17
			C54.91,38.2,54.96,38.26,54.99,38.29z"/>
		<path class="st6" d="M43.64,39.19c0.1,0.02,0.24-0.02,0.24,0.14c-0.08,0-0.15,0-0.26-0.04C43.59,39.25,43.62,39.21,43.64,39.19z"
			/>
		<path class="st11" d="M53.99,59.34c-2.14,0.79-4.17,1.62-6.02,2.83c-3.38,2.19-6.99,3.99-10.46,6.03
			c-1.77,1.05-3.63,1.45-5.63,1.53c-2.89,0.11-5.77,0.04-8.54-0.8c-2.57-0.77-4.08-2.72-4.79-5.2c-0.61-2.11,0.34-4.07,2.38-5.4
			c1.43-0.93,2.99-0.91,4.48-0.2c5.71,2.7,11.17,2.13,16.49-1.12c1.77-1.08,3.35-2.46,5.32-3.21c1.27-0.48,2.55-0.79,3.92-0.78
			c5.05,0.02,10.11-0.01,15.16,0.02c1.11,0.01,1.94-0.45,2.72-1.17c1.4-1.3,2.71-2.73,4.51-3.53c1.05-0.47,2.14-0.73,3.25-0.35
			c2.15,0.73,3.02,3.17,1.91,5.17c-1.66,2.99-4.46,4.55-7.38,5.99c-1.23,0.61-2.37,0.76-3.64,0.09c-0.82-0.43-1.77-0.51-2.71-0.47
			c-3,0.1-6.01-0.09-9.01,0.21C55.31,59.05,54.69,59.21,53.99,59.34z"/>
		<path class="st12" d="M61.04,56.09c2.94-0.34,5.79-0.7,8.56-1.51c1.36-0.4,2.66-0.97,3.82-1.73c1.16-0.76,1.8-1.98,2.04-3.36
			c0.08-0.46,0.25-0.86,0.75-0.8c0.59,0.07,0.49,0.58,0.45,0.99c-0.14,1.42-0.72,2.6-1.85,3.54c-2.56,2.13-5.66,2.88-8.81,3.46
			c-3.5,0.65-7.03,0.93-10.59,0.78c-4.35-0.17-8.22,1.27-12.11,3.08c-3.71,1.73-7.23,3.97-11.37,4.67
			c-2.11,0.36-4.19,0.48-6.23-0.33c-1.73-0.69-2.96-1.86-3.47-3.7c-0.13-0.46-0.37-1,0.3-1.19c0.58-0.17,0.75,0.32,0.89,0.77
			c0.69,2.3,2.51,3.16,4.64,3.38c3.11,0.33,5.95-0.71,8.79-1.87c4.24-1.75,8.11-4.36,12.63-5.45c1.37-0.33,2.75-0.57,4.17-0.54
			C56.1,56.31,58.53,56.22,61.04,56.09z"/>
	</g>
</g>
</svg>
